<mxfile host="app.diagrams.net" modified="2023-09-23T09:32:51.805Z" agent="Mozilla/5.0 (Windows NT 10.0; Win64; x64) AppleWebKit/537.36 (KHTML, like Gecko) Chrome/117.0.0.0 Safari/537.36" etag="5nIJj_rqeAjbTqccLTC2" version="21.8.1" type="github">
  <diagram name="Страница — 1" id="gYUM-hIDIAx276U46wet">
    <mxGraphModel dx="794" dy="464" grid="1" gridSize="10" guides="1" tooltips="1" connect="1" arrows="1" fold="1" page="1" pageScale="1" pageWidth="827" pageHeight="1169" math="0" shadow="0">
      <root>
        <mxCell id="0" />
        <mxCell id="1" parent="0" />
        <mxCell id="c7UrGmr0j77cQybt0sbC-1" value="Server&lt;br&gt;1C" style="shape=cylinder3;whiteSpace=wrap;html=1;boundedLbl=1;backgroundOutline=1;size=15;" vertex="1" parent="1">
          <mxGeometry x="425" y="199.5" width="110" height="110" as="geometry" />
        </mxCell>
        <mxCell id="c7UrGmr0j77cQybt0sbC-10" value="&lt;b&gt;BI&lt;/b&gt;" style="text;html=1;align=center;verticalAlign=middle;resizable=0;points=[];autosize=1;strokeColor=none;fillColor=none;" vertex="1" parent="1">
          <mxGeometry x="670" y="38" width="40" height="30" as="geometry" />
        </mxCell>
        <mxCell id="c7UrGmr0j77cQybt0sbC-11" value="" style="sketch=0;pointerEvents=1;shadow=0;dashed=0;html=1;strokeColor=none;fillColor=#505050;labelPosition=center;verticalLabelPosition=bottom;verticalAlign=top;outlineConnect=0;align=center;shape=mxgraph.office.sites.excel_services;" vertex="1" parent="1">
          <mxGeometry x="660" y="130.5" width="60" height="49" as="geometry" />
        </mxCell>
        <mxCell id="c7UrGmr0j77cQybt0sbC-12" value="&lt;b&gt;STORAGE&lt;/b&gt;" style="text;html=1;align=center;verticalAlign=middle;resizable=0;points=[];autosize=1;strokeColor=none;fillColor=none;" vertex="1" parent="1">
          <mxGeometry x="440" y="38" width="80" height="30" as="geometry" />
        </mxCell>
        <mxCell id="c7UrGmr0j77cQybt0sbC-13" value="" style="endArrow=none;html=1;rounded=0;" edge="1" parent="1">
          <mxGeometry width="50" height="50" relative="1" as="geometry">
            <mxPoint x="600" y="520" as="sourcePoint" />
            <mxPoint x="600" y="80.5" as="targetPoint" />
          </mxGeometry>
        </mxCell>
        <mxCell id="c7UrGmr0j77cQybt0sbC-14" value="" style="endArrow=none;html=1;rounded=0;" edge="1" parent="1">
          <mxGeometry width="50" height="50" relative="1" as="geometry">
            <mxPoint x="360" y="520" as="sourcePoint" />
            <mxPoint x="360" y="80" as="targetPoint" />
          </mxGeometry>
        </mxCell>
        <mxCell id="c7UrGmr0j77cQybt0sbC-16" value="Битрикс&lt;br&gt;CRM" style="shape=cylinder3;whiteSpace=wrap;html=1;boundedLbl=1;backgroundOutline=1;size=15;" vertex="1" parent="1">
          <mxGeometry x="190" y="115" width="60" height="80" as="geometry" />
        </mxCell>
        <mxCell id="c7UrGmr0j77cQybt0sbC-17" value="1C АА&lt;br&gt;зн" style="shape=cylinder3;whiteSpace=wrap;html=1;boundedLbl=1;backgroundOutline=1;size=15;" vertex="1" parent="1">
          <mxGeometry x="190" y="230" width="60" height="80" as="geometry" />
        </mxCell>
        <mxCell id="c7UrGmr0j77cQybt0sbC-18" value="&lt;b&gt;SOURCE&lt;/b&gt;" style="text;html=1;align=center;verticalAlign=middle;resizable=0;points=[];autosize=1;strokeColor=none;fillColor=none;" vertex="1" parent="1">
          <mxGeometry x="185" y="38" width="70" height="30" as="geometry" />
        </mxCell>
        <mxCell id="c7UrGmr0j77cQybt0sbC-19" value="S-gate&lt;br&gt;warranty" style="shape=cylinder3;whiteSpace=wrap;html=1;boundedLbl=1;backgroundOutline=1;size=15;" vertex="1" parent="1">
          <mxGeometry x="190" y="340" width="60" height="80" as="geometry" />
        </mxCell>
        <mxCell id="c7UrGmr0j77cQybt0sbC-20" value="EVA &lt;br&gt;sales" style="shape=cylinder3;whiteSpace=wrap;html=1;boundedLbl=1;backgroundOutline=1;size=15;" vertex="1" parent="1">
          <mxGeometry x="195" y="460" width="60" height="80" as="geometry" />
        </mxCell>
        <mxCell id="c7UrGmr0j77cQybt0sbC-22" value="" style="sketch=0;pointerEvents=1;shadow=0;dashed=0;html=1;strokeColor=none;fillColor=#505050;labelPosition=center;verticalLabelPosition=bottom;verticalAlign=top;outlineConnect=0;align=center;shape=mxgraph.office.sites.powerpoint_automation_services;" vertex="1" parent="1">
          <mxGeometry x="660" y="230" width="59" height="49" as="geometry" />
        </mxCell>
        <mxCell id="c7UrGmr0j77cQybt0sbC-23" value="Power BI dashboard" style="image;sketch=0;aspect=fixed;html=1;points=[];align=center;fontSize=12;image=img/lib/mscae/Shared_Dashboard.svg;" vertex="1" parent="1">
          <mxGeometry x="660" y="330" width="50" height="41" as="geometry" />
        </mxCell>
      </root>
    </mxGraphModel>
  </diagram>
</mxfile>
